<svg xmlns="http://www.w3.org/2000/svg" viewBox="0 0 284.45 266.11"><defs><style>.cls-1{fill:#006463;opacity:0.63;}</style></defs><title>home_2</title><g id="图层_2" data-name="图层 2"><g id="图层_1-2" data-name="图层 1"><path class="cls-1" d="M141.47.07a17.27,17.27,0,0,0-7.66,1,18.46,18.46,0,0,0-8.17,6.64c-4,5.4-39.21,37.64-114.38,104.17a17.74,17.74,0,0,0-9.71,8.68A17.76,17.76,0,0,0,0,128.75c.11,2.27.25,6.06,3.07,9.19a12,12,0,0,0,6.12,3.58H34.79V252.87a9.9,9.9,0,0,0,5.57,11.71H111.9a7.09,7.09,0,0,0,5.06-1,7.27,7.27,0,0,0,2.55-4.6c.94-4.66.91-32.69,0-71l19.41-.48h21.45v69a10.69,10.69,0,0,0,9.18,9.67h68a12.67,12.67,0,0,0,9.63-8.68V140.56h26.55a12,12,0,0,0,7.15-3.13c3.43-3.27,3.53-7.76,3.58-10.21a19.66,19.66,0,0,0-3.07-10.72,24.26,24.26,0,0,0-7.92-7.93C265.89,103.81,214.3,61.1,141.47.07Z"/><path class="cls-1" d="M185.38,14.37h51.09a14.6,14.6,0,0,1,15.81,9.7V74.63Z"/></g></g></svg>