<svg xmlns="http://www.w3.org/2000/svg" viewBox="0 0 153.4 153.51"><defs><style>.cls-1{fill:#00544e;fill-opacity:0.58;}</style></defs><title>phonecall</title><g id="图层_2" data-name="图层 2"><g id="图层_1-2" data-name="图层 1"><path class="cls-1" d="M7,0A14.62,14.62,0,0,0,.89,7.15a13.31,13.31,0,0,0-.77,4.08A86.22,86.22,0,0,0,.63,26.81c2.71,17.62,1.75,14.84,2.81,19.4,2.2,9.47,5.15,16.3,8.17,23.24a164.56,164.56,0,0,0,8.68,17.36,133.29,133.29,0,0,0,28.09,32.68C65.3,133.84,81.27,140.37,91,144.26c15.27,6.09,26.16,7.8,28.59,8.17,9.68,1.45,24.51,1,24.51,1a15.22,15.22,0,0,0,4.85-2.81,12.68,12.68,0,0,0,3.58-4.6,11.66,11.66,0,0,0,.76-5.87c-.4-4.47-.34-14.77,0-29.87a10.57,10.57,0,0,0-4.08-7.41c-1.93-1.43-3.83-1.15-9.19-1.53-.94-.06-5.62-.39-9.71-1-5.85-.9-6.93-1.85-14.55-3.06a19.07,19.07,0,0,0-8.17,0,18,18,0,0,0-4.85,2,25.14,25.14,0,0,0-3.06,2.3c-2.43,1.93-4.41,3.21-6.13,4.34-2.59,1.68-3.14,1.68-6.64,3.83-1.53.94-2.77,1.75-3.57,2.3a84.9,84.9,0,0,1-42.9-42.64L50.93,54.89a19.37,19.37,0,0,0,3.32-4.34,20.59,20.59,0,0,0,2.55-11,40.55,40.55,0,0,1-3.57-11c-.72-4.23-.25-5.68-1-13.79-.67-7-1.3-8.83-2.56-10.47A12.79,12.79,0,0,0,42.76,0Z"/></g></g></svg>