<svg xmlns="http://www.w3.org/2000/svg" viewBox="0 0 453.67 70.9"><defs><style>.cls-1{fill:none;stroke:#c9caca;stroke-linecap:round;stroke-linejoin:round;stroke-width:2px;}.cls-2{font-size:24px;fill:#559d9a;}.cls-2,.cls-3{font-family:Corbel;}.cls-3{font-size:18px;fill:#3da398;}</style></defs><title>资源 4</title><g id="图层_2" data-name="图层 2"><g id="图层_1-2" data-name="图层 1"><polyline class="cls-1" points="33.14 52.82 33.14 69.67 412.71 69.67 412.71 52.82"/><line class="cls-1" x1="65.64" y1="69.67" x2="65.64" y2="52.82"/><line class="cls-1" x1="101.22" y1="69.67" x2="101.22" y2="52.82"/><line class="cls-1" x1="135.81" y1="69.9" x2="135.81" y2="53.05"/><line class="cls-1" x1="170.39" y1="69.14" x2="170.39" y2="52.29"/><line class="cls-1" x1="204.98" y1="69.07" x2="204.98" y2="52.22"/><line class="cls-1" x1="239.56" y1="69.61" x2="239.56" y2="52.75"/><line class="cls-1" x1="274.14" y1="68.84" x2="274.14" y2="51.99"/><line class="cls-1" x1="308.73" y1="69.07" x2="308.73" y2="52.22"/><line class="cls-1" x1="343.31" y1="69.31" x2="343.31" y2="52.46"/><line class="cls-1" x1="377.9" y1="69.54" x2="377.9" y2="52.69"/><line class="cls-1" x1="33.14" y1="69.67" x2="5.77" y2="69.67"/><line class="cls-1" x1="440.24" y1="69.67" x2="412.87" y2="69.67"/><text class="cls-2" transform="translate(0 19.84)">0</text><text class="cls-3" transform="translate(387.34 19.84)">24 Hours</text></g></g></svg>